<?xml version="1.0" encoding="UTF-8"?>
<!DOCTYPE svg PUBLIC "-//W3C//DTD SVG 1.1//EN" "http://www.w3.org/Graphics/SVG/1.1/DTD/svg11.dtd">
<!-- Creator: CorelDRAW -->
<?xml-stylesheet href="fundacion.css" type="text/css"?>
<svg xmlns="http://www.w3.org/2000/svg" xml:space="preserve" width="100px" height="150px" style="shape-rendering:geometricPrecision; text-rendering:geometricPrecision; image-rendering:optimizeQuality; fill-rule:evenodd; clip-rule:evenodd"
viewBox="0 0 100 141.429"
 xmlns:xlink="http://www.w3.org/1999/xlink">
 <g id="Layer_x0020_1">
  <metadata id="CorelCorpID_0Corel-Layer"/>
  <g id="_214953560">
   <path id="_214953824" class="fil0" d="M47.333 49.1768l-0.078619 0.046381 -0.002 -0.167333c-0.177667,-0.762524 -1.2059,-0.353 -1.85462,-0.443476l-1.328 -0.17919c-0.385619,-0.0355714 -0.866667,0.327381 -1.01043,0.542048l0 2.7819c0.397,-0.265857 0.82881,-0.48381 1.49176,-0.48381l0.120952 0 1.41 0.131381c0.966048,0.0921905 2.18414,-0.741381 2.6529,-1.18881 0.358952,-0.342667 0.597381,-0.647143 0.926095,-1.00914 0.158667,-0.17481 0.293952,-0.336333 0.437095,-0.530524 0.110619,-0.150048 0.291762,-0.446619 0.379619,-0.547667l0 -0.362857c-0.143762,-0.165429 -0.213952,-0.48381 -0.564429,-0.48381l-0.0403333 0c-0.542714,0 -2.03157,1.55443 -2.54,1.8949z"/>
   <path id="_214953200" class="fil0" d="M43.7447 45.266c0,0.821238 0.522952,1.19276 1.00848,1.53152 0.183619,0.128095 1.37243,1.08914 1.45086,1.08914 0.0100952,0 0.604143,-0.512905 0.678143,-0.571714 0.236048,-0.187619 0.483,-0.340333 0.726,-0.523857 0.445429,-0.336286 1.0149,-0.684714 1.0149,-1.44443l0 -0.161286c0,-0.513429 -0.655762,-1.16919 -1.16919,-1.16919l-0.241905 0c-0.469619,0 -0.840095,0.408476 -1.00795,0.725714 -0.332048,-0.243333 -0.381,-0.725714 -1.16919,-0.725714l-0.120952 0c-0.578905,0 -1.16919,0.639381 -1.16919,1.24981z"/>
   <path id="_214953368" class="fil0" d="M40.8015 48.3301l0 4.47524c0.0727619,0.0487143 0.0708571,0.080619 0.161286,0.080619l1.73362 0c0.094381,0 0.161286,-0.0668571 0.161286,-0.161238l0 -4.27367c0,-0.090381 -0.0319048,-0.0885238 -0.080619,-0.161286l-1.97557 0.0403333z"/>
   <polygon id="_214953392" class="fil0" points="47.333,49.1768 47.2523,49.0558 47.2543,49.2231 "/>
  </g>
 </g>
</svg>
