<?xml version="1.0" encoding="UTF-8"?>
<!DOCTYPE svg PUBLIC "-//W3C//DTD SVG 1.1//EN" "http://www.w3.org/Graphics/SVG/1.1/DTD/svg11.dtd">
<!-- Creator: CorelDRAW -->
<?xml-stylesheet href="fundacion.css" type="text/css"?>
<svg xmlns="http://www.w3.org/2000/svg" xml:space="preserve" width="300px" height="300px" style="shape-rendering:geometricPrecision; text-rendering:geometricPrecision; image-rendering:optimizeQuality; fill-rule:evenodd; clip-rule:evenodd"
viewBox="0 0 155.276 142.336"
 xmlns:xlink="http://www.w3.org/1999/xlink">
 <g id="Layer_x0020_1">
  <metadata id="CorelCorpID_0Corel-Layer"/>
  <g id="_214953560">
   <path id="_214953824" class="fil0" d="M104.811 82.8135l-1.26167 0.744168 -0.0320807 -2.68479c-2.85098,-12.2364 -19.3515,-5.66461 -29.7614,-7.11666l-21.3111 -2.8757c-6.1879,-0.570616 -13.9073,5.25388 -16.2144,8.69861l0 44.6416c6.37092,-4.26621 13.3004,-7.76354 23.9385,-7.76354l1.94115 0 22.6264 2.10786c15.5024,1.47939 35.0495,-11.8967 42.5722,-19.077 5.7598,-5.49895 9.58583,-10.3847 14.8613,-16.1939 2.54595,-2.80522 4.71692,-5.39692 7.01411,-8.51349 1.77496,-2.40763 4.68168,-7.16662 6.09166,-8.78854l0 -5.82291c-2.30718,-2.65429 -3.43316,-7.76354 -9.05728,-7.76354l-0.6474 0c-8.70913,0 -32.6014,24.9441 -40.7599,30.4078z"/>
   <path id="_214953200" class="fil0" d="M47.2302 20.0562c0,13.1783 8.39148,19.1401 16.1829,24.5765 2.94669,2.0558 22.0237,17.4777 23.2822,17.4777 0.161981,0 9.69522,-8.23055 10.8827,-9.17456 3.78763,-3.01085 7.75039,-5.46109 11.65,-8.4062 7.14769,-5.3964 16.2865,-10.9879 16.2865,-23.1791l0 -2.58802c0,-8.23949 -10.523,-18.7625 -18.7625,-18.7625l-3.88177 0c-7.53581,0 -13.4813,6.55499 -16.175,11.6458 -5.32803,-3.90491 -6.11374,-11.6458 -18.762,-11.6458l-1.94115 0c-9.28974,0 -18.762,10.26 -18.762,20.0562z"/>
   <path id="_214953368" class="fil0" d="M-0 69.227l0 71.8151c1.16753,0.781507 1.13703,1.29375 2.58802,1.29375l27.8198 0c1.51463,0 2.58855,-1.07286 2.58855,-2.58749l0 -68.5802c0,-1.45047 -0.51224,-1.42102 -1.29375,-2.58855l-31.7026 0.6474z"/>
   <polygon id="_214953392" class="fil0" points="104.811,82.8135 103.518,80.8729 103.55,83.5577 "/>
  </g>
 </g>
</svg>
